<svg xmlns="http://www.w3.org/2000/svg" xmlns:xlink="http://www.w3.org/1999/xlink" viewBox="0 0 1490.26 583.98"><defs><style>.cls-1{fill:#10102e;}.cls-2{fill:#fff;}.cls-3{fill:url(#linear-gradient);}.cls-4{fill:url(#linear-gradient-2);}.cls-5{fill:url(#linear-gradient-3);}.cls-6{fill:url(#linear-gradient-4);}.cls-7{fill:url(#linear-gradient-5);}.cls-8{fill:url(#linear-gradient-6);}.cls-9{fill:url(#linear-gradient-7);}.cls-10{fill:url(#linear-gradient-8);}.cls-11{fill:url(#linear-gradient-9);}.cls-12{fill:url(#linear-gradient-10);}.cls-13{fill:url(#linear-gradient-11);}.cls-14{fill:url(#linear-gradient-12);}.cls-15{fill:url(#linear-gradient-13);}.cls-16{fill:url(#linear-gradient-14);}.cls-17{fill:url(#linear-gradient-15);}.cls-18{fill:url(#linear-gradient-16);}.cls-19{fill:url(#linear-gradient-17);}.cls-20{fill:url(#linear-gradient-18);}.cls-21{fill:url(#linear-gradient-19);}.cls-22{fill:url(#linear-gradient-20);}.cls-23{fill:url(#linear-gradient-21);}.cls-24{fill:url(#linear-gradient-22);}.cls-25{fill:url(#linear-gradient-23);}.cls-26{fill:url(#linear-gradient-24);}.cls-27{fill:url(#linear-gradient-25);}.cls-28{fill:url(#linear-gradient-26);}.cls-29{fill:url(#linear-gradient-27);}.cls-30{fill:url(#linear-gradient-28);}.cls-31{fill:url(#linear-gradient-29);}.cls-32{fill:url(#linear-gradient-30);}.cls-33{fill:url(#linear-gradient-31);}.cls-34{fill:url(#linear-gradient-34);}.cls-35{fill:url(#linear-gradient-35);}.cls-36{fill:url(#linear-gradient-37);}.cls-37{fill:url(#linear-gradient-38);}.cls-38{fill:url(#linear-gradient-39);}.cls-39{fill:url(#linear-gradient-40);}.cls-40{fill:url(#linear-gradient-41);}.cls-41{fill:url(#linear-gradient-42);}.cls-42{fill:url(#linear-gradient-43);}.cls-43{fill:url(#linear-gradient-44);}.cls-44{fill:url(#linear-gradient-45);}.cls-45{fill:url(#linear-gradient-46);}.cls-46{fill:url(#linear-gradient-47);}.cls-47{fill:url(#linear-gradient-48);}.cls-48{fill:url(#linear-gradient-49);}.cls-49{fill:url(#linear-gradient-50);}.cls-50{fill:url(#linear-gradient-51);}.cls-51{fill:url(#linear-gradient-52);}.cls-52{fill:url(#linear-gradient-53);}.cls-53{fill:url(#linear-gradient-54);}.cls-54{fill:url(#linear-gradient-55);}.cls-55{fill:url(#linear-gradient-56);}.cls-56{fill:url(#linear-gradient-57);}.cls-57{fill:url(#linear-gradient-58);}.cls-58{fill:url(#linear-gradient-59);}.cls-59{fill:url(#linear-gradient-60);}.cls-60{fill:url(#linear-gradient-61);}.cls-61{fill:url(#linear-gradient-62);}.cls-62{fill:url(#linear-gradient-63);}.cls-63{fill:url(#linear-gradient-64);}.cls-64{fill:url(#linear-gradient-65);}.cls-65{fill:url(#linear-gradient-66);}.cls-66{fill:url(#linear-gradient-67);}.cls-67{fill:url(#linear-gradient-68);}</style><linearGradient id="linear-gradient" x1="289.03" y1="220.7" x2="289.03" y2="427.82" gradientUnits="userSpaceOnUse"><stop offset="0" stop-color="#fff"/><stop offset="0.58" stop-color="#00a1e0"/><stop offset="1" stop-color="#1d70b7"/></linearGradient><linearGradient id="linear-gradient-2" x1="273.39" y1="220.7" x2="273.39" y2="427.82" xlink:href="#linear-gradient"/><linearGradient id="linear-gradient-3" x1="305.34" y1="220.7" x2="305.34" y2="427.82" xlink:href="#linear-gradient"/><linearGradient id="linear-gradient-4" x1="322.64" y1="220.7" x2="322.64" y2="427.82" xlink:href="#linear-gradient"/><linearGradient id="linear-gradient-5" x1="339.06" y1="220.7" x2="339.06" y2="427.82" xlink:href="#linear-gradient"/><linearGradient id="linear-gradient-6" x1="356.81" y1="220.7" x2="356.81" y2="427.82" xlink:href="#linear-gradient"/><linearGradient id="linear-gradient-7" x1="257.09" y1="220.7" x2="257.09" y2="427.82" xlink:href="#linear-gradient"/><linearGradient id="linear-gradient-8" x1="240.11" y1="220.7" x2="240.11" y2="427.82" xlink:href="#linear-gradient"/><linearGradient id="linear-gradient-9" x1="224.14" y1="220.7" x2="224.14" y2="427.82" xlink:href="#linear-gradient"/><linearGradient id="linear-gradient-10" x1="256.97" y1="220.7" x2="256.97" y2="427.82" xlink:href="#linear-gradient"/><linearGradient id="linear-gradient-11" x1="272.95" y1="220.7" x2="272.95" y2="427.82" xlink:href="#linear-gradient"/><linearGradient id="linear-gradient-12" x1="323.09" y1="220.7" x2="323.09" y2="427.82" xlink:href="#linear-gradient"/><linearGradient id="linear-gradient-13" x1="304.01" y1="220.7" x2="304.01" y2="427.82" xlink:href="#linear-gradient"/><linearGradient id="linear-gradient-14" x1="288.92" y1="220.7" x2="288.92" y2="427.82" xlink:href="#linear-gradient"/><linearGradient id="linear-gradient-15" x1="306.01" y1="220.7" x2="306.01" y2="427.82" xlink:href="#linear-gradient"/><linearGradient id="linear-gradient-16" x1="254.76" y1="220.7" x2="254.76" y2="427.82" xlink:href="#linear-gradient"/><linearGradient id="linear-gradient-17" x1="239.67" y1="220.7" x2="239.67" y2="427.82" xlink:href="#linear-gradient"/><linearGradient id="linear-gradient-18" x1="222.37" y1="220.7" x2="222.37" y2="427.82" xlink:href="#linear-gradient"/><linearGradient id="linear-gradient-19" x1="206.84" y1="220.7" x2="206.84" y2="427.82" xlink:href="#linear-gradient"/><linearGradient id="linear-gradient-20" x1="191.75" y1="220.7" x2="191.75" y2="427.82" xlink:href="#linear-gradient"/><linearGradient id="linear-gradient-21" x1="271.06" y1="220.7" x2="271.06" y2="427.82" xlink:href="#linear-gradient"/><linearGradient id="linear-gradient-22" x1="323.98" y1="220.7" x2="323.98" y2="427.82" xlink:href="#linear-gradient"/><linearGradient id="linear-gradient-23" x1="340.39" y1="220.7" x2="340.39" y2="427.82" xlink:href="#linear-gradient"/><linearGradient id="linear-gradient-24" x1="355.48" y1="220.7" x2="355.48" y2="427.82" xlink:href="#linear-gradient"/><linearGradient id="linear-gradient-25" x1="372.78" y1="220.7" x2="372.78" y2="427.82" xlink:href="#linear-gradient"/><linearGradient id="linear-gradient-26" x1="389.65" y1="220.7" x2="389.65" y2="427.82" xlink:href="#linear-gradient"/><linearGradient id="linear-gradient-27" x1="223.81" y1="220.7" x2="223.81" y2="427.82" xlink:href="#linear-gradient"/><linearGradient id="linear-gradient-28" x1="206.28" y1="220.7" x2="206.28" y2="427.82" xlink:href="#linear-gradient"/><linearGradient id="linear-gradient-29" x1="189.42" y1="220.7" x2="189.42" y2="427.82" xlink:href="#linear-gradient"/><linearGradient id="linear-gradient-30" x1="175.66" y1="220.7" x2="175.66" y2="427.82" xlink:href="#linear-gradient"/><linearGradient id="linear-gradient-31" x1="160.13" y1="220.7" x2="160.13" y2="427.82" xlink:href="#linear-gradient"/><linearGradient id="linear-gradient-34" x1="323.31" y1="220.7" x2="323.31" y2="427.82" xlink:href="#linear-gradient"/><linearGradient id="linear-gradient-35" x1="290.53" y1="220.7" x2="290.53" y2="427.82" xlink:href="#linear-gradient"/><linearGradient id="linear-gradient-37" x1="271.9" y1="220.7" x2="271.9" y2="427.82" xlink:href="#linear-gradient"/><linearGradient id="linear-gradient-38" x1="309.63" y1="220.7" x2="309.63" y2="427.82" xlink:href="#linear-gradient"/><linearGradient id="linear-gradient-39" x1="207.11" y1="220.7" x2="207.11" y2="427.82" xlink:href="#linear-gradient"/><linearGradient id="linear-gradient-40" x1="149.42" y1="220.7" x2="149.42" y2="427.82" xlink:href="#linear-gradient"/><linearGradient id="linear-gradient-41" x1="178.52" y1="220.7" x2="178.52" y2="427.82" xlink:href="#linear-gradient"/><linearGradient id="linear-gradient-42" x1="135.45" y1="177.35" x2="135.45" y2="302.6" xlink:href="#linear-gradient"/><linearGradient id="linear-gradient-43" x1="206.76" y1="-203.31" x2="206.76" y2="-78.06" gradientTransform="matrix(0.99, -0.11, 0.11, 0.99, -15.05, 400.8)" xlink:href="#linear-gradient"/><linearGradient id="linear-gradient-44" x1="199.91" y1="177.35" x2="199.91" y2="302.6" xlink:href="#linear-gradient"/><linearGradient id="linear-gradient-45" x1="231.47" y1="177.35" x2="231.47" y2="302.6" xlink:href="#linear-gradient"/><linearGradient id="linear-gradient-46" x1="126.19" y1="153.28" x2="126.19" y2="270.17" xlink:href="#linear-gradient"/><linearGradient id="linear-gradient-47" x1="199.43" y1="-227.38" x2="199.43" y2="-110.49" gradientTransform="matrix(0.99, -0.11, 0.11, 0.99, -15.05, 400.8)" xlink:href="#linear-gradient"/><linearGradient id="linear-gradient-48" x1="190.03" y1="153.28" x2="190.03" y2="270.17" xlink:href="#linear-gradient"/><linearGradient id="linear-gradient-49" x1="223.51" y1="153.28" x2="223.51" y2="270.17" xlink:href="#linear-gradient"/><linearGradient id="linear-gradient-50" x1="7219.46" y1="542.37" x2="7219.46" y2="667.62" gradientTransform="matrix(-0.99, -0.11, -0.11, 0.99, 7674.14, 408.23)" xlink:href="#linear-gradient"/><linearGradient id="linear-gradient-51" x1="7255.3" y1="377.81" x2="7255.3" y2="503.06" gradientTransform="matrix(-1, -0.06, -0.06, 1, 7672.78, 221.98)" xlink:href="#linear-gradient"/><linearGradient id="linear-gradient-52" x1="7282.36" y1="177.35" x2="7282.36" y2="302.6" gradientTransform="matrix(-1, 0, 0, 1, 7659.34, 0)" xlink:href="#linear-gradient"/><linearGradient id="linear-gradient-53" x1="7313.92" y1="177.35" x2="7313.92" y2="302.6" gradientTransform="matrix(-1, 0, 0, 1, 7659.34, 0)" xlink:href="#linear-gradient"/><linearGradient id="linear-gradient-54" x1="7212.66" y1="518.31" x2="7212.66" y2="635.19" gradientTransform="matrix(-0.99, -0.11, -0.11, 0.99, 7674.14, 408.23)" xlink:href="#linear-gradient"/><linearGradient id="linear-gradient-55" x1="7247.97" y1="353.74" x2="7247.97" y2="470.63" gradientTransform="matrix(-1, -0.06, -0.06, 1, 7672.78, 221.98)" xlink:href="#linear-gradient"/><linearGradient id="linear-gradient-56" x1="7272.47" y1="153.28" x2="7272.47" y2="270.17" gradientTransform="matrix(-1, 0, 0, 1, 7659.34, 0)" xlink:href="#linear-gradient"/><linearGradient id="linear-gradient-57" x1="7305.95" y1="153.28" x2="7305.95" y2="270.17" gradientTransform="matrix(-1, 0, 0, 1, 7659.34, 0)" xlink:href="#linear-gradient"/><linearGradient id="linear-gradient-58" x1="240.83" y1="220.7" x2="240.83" y2="427.82" xlink:href="#linear-gradient"/><linearGradient id="linear-gradient-59" x1="338.45" y1="220.7" x2="338.45" y2="427.82" xlink:href="#linear-gradient"/><linearGradient id="linear-gradient-60" x1="370.84" y1="220.7" x2="370.84" y2="427.82" xlink:href="#linear-gradient"/><linearGradient id="linear-gradient-61" x1="403.68" y1="220.7" x2="403.68" y2="427.82" xlink:href="#linear-gradient"/><linearGradient id="linear-gradient-62" x1="355.92" y1="220.7" x2="355.92" y2="427.82" xlink:href="#linear-gradient"/><linearGradient id="linear-gradient-63" x1="371.9" y1="220.7" x2="371.9" y2="427.82" xlink:href="#linear-gradient"/><linearGradient id="linear-gradient-64" x1="386.98" y1="220.7" x2="386.98" y2="427.82" xlink:href="#linear-gradient"/><linearGradient id="linear-gradient-65" x1="404.9" y1="220.7" x2="404.9" y2="427.82" xlink:href="#linear-gradient"/><linearGradient id="linear-gradient-66" x1="421.32" y1="220.7" x2="421.32" y2="427.82" xlink:href="#linear-gradient"/><linearGradient id="linear-gradient-67" x1="433.07" y1="191.49" x2="433.07" y2="398.62" xlink:href="#linear-gradient"/><linearGradient id="linear-gradient-68" x1="338.95" y1="220.7" x2="338.95" y2="427.82" xlink:href="#linear-gradient"/></defs><g id="Layer_2" data-name="Layer 2"><rect class="cls-1" x="-8.44" y="0.5" width="1507.13" height="582.98"/></g><g id="Layer_1" data-name="Layer 1"><path class="cls-2" d="M592.08,236.82h21.35l-46.36,110.5H548.72l-46.36-110.5h21.35l34.1,83.47H558Z"/><path class="cls-2" d="M675.34,236.9h20.22v93h49.85v17.45H675.34Z"/><path class="cls-2" d="M809.75,236.9h75.68v17.54H830V284h47.91v17.38H830v28.5h56.19v17.45H809.75Z"/><path class="cls-2" d="M972.26,311.27v36.05H952V236.9h46.53a41.1,41.1,0,0,1,15.38,2.8,36.85,36.85,0,0,1,12.14,7.75,34.87,34.87,0,0,1,8,11.82,41,41,0,0,1,0,29.88,34.76,34.76,0,0,1-7.87,11.73,35.57,35.57,0,0,1-12.06,7.67,41.62,41.62,0,0,1-15.27,2.72Zm25.58-17.45a18.32,18.32,0,0,0,7.43-1.51,18,18,0,0,0,6-4.14,19.51,19.51,0,0,0,4-6.21,20,20,0,0,0,1.46-7.71,20.41,20.41,0,0,0-1.46-7.76,19.69,19.69,0,0,0-4-6.29,19.32,19.32,0,0,0-6-4.26,17.57,17.57,0,0,0-7.43-1.58h-25.5v39.46Z"/><path class="cls-2" d="M1123.08,311.27v36.05h-20.22V236.9h46.52a41.11,41.11,0,0,1,15.39,2.8,37,37,0,0,1,12.14,7.75,34.87,34.87,0,0,1,8,11.82,41,41,0,0,1,0,29.88,34.78,34.78,0,0,1-7.88,11.73,35.38,35.38,0,0,1-12.06,7.67,41.53,41.53,0,0,1-15.26,2.72Zm25.57-17.45a18.42,18.42,0,0,0,13.4-5.65,19.68,19.68,0,0,0,4-6.21,20.23,20.23,0,0,0,1.46-7.71,20.6,20.6,0,0,0-1.46-7.76,20,20,0,0,0-4-6.29,19.49,19.49,0,0,0-6-4.26,17.54,17.54,0,0,0-7.43-1.58h-25.49v39.46Z"/><path class="cls-2" d="M1248.88,292a55.09,55.09,0,0,1,2.15-15.43,58.53,58.53,0,0,1,6-13.8,55.85,55.85,0,0,1,9.34-11.65,60,60,0,0,1,26.35-14.74,63.24,63.24,0,0,1,31.79,0,59.74,59.74,0,0,1,26.38,14.74,56.88,56.88,0,0,1,15.43,25.45,56.44,56.44,0,0,1,0,30.86,56.88,56.88,0,0,1-15.43,25.45,61.35,61.35,0,0,1-12.09,9,59.11,59.11,0,0,1-14.29,5.81,63.24,63.24,0,0,1-31.79,0,59.15,59.15,0,0,1-14.25-5.81,61.42,61.42,0,0,1-12.1-9,55.85,55.85,0,0,1-9.34-11.65,58.71,58.71,0,0,1-6-13.8A55.09,55.09,0,0,1,1248.88,292Zm20.22.08a40.4,40.4,0,0,0,11.61,28.62,39.43,39.43,0,0,0,12.55,8.49,38.69,38.69,0,0,0,15.38,3.08,39.27,39.27,0,0,0,28.1-11.57,39.79,39.79,0,0,0,8.44-12.75,42.4,42.4,0,0,0,0-31.78,38.95,38.95,0,0,0-21-21.28,39.22,39.22,0,0,0-15.51-3.08,38.69,38.69,0,0,0-15.38,3.08,39.43,39.43,0,0,0-12.55,8.49A40.6,40.6,0,0,0,1269.1,292Z"/><circle class="cls-3" cx="289.03" cy="343.71" r="13.48"/><circle class="cls-4" cx="273.39" cy="311.77" r="13.48"/><circle class="cls-5" cx="305.34" cy="311.77" r="13.48"/><circle class="cls-6" cx="322.64" cy="277.16" r="13.48"/><circle class="cls-7" cx="339.06" cy="244.77" r="13.48"/><circle class="cls-8" cx="356.81" cy="211.93" r="12.15"/><circle class="cls-9" cx="257.09" cy="279.15" r="13.48"/><circle class="cls-10" cx="240.11" cy="245.21" r="13.48"/><circle class="cls-11" cx="224.14" cy="211.93" r="13.48"/><circle class="cls-12" cx="256.97" cy="211.93" r="10.3"/><circle class="cls-13" cx="272.95" cy="244.77" r="10.3"/><circle class="cls-14" cx="323.09" cy="211.49" r="10.3"/><circle class="cls-15" cx="304.01" cy="244.77" r="10.3"/><circle class="cls-16" cx="288.92" cy="278.04" r="10.3"/><circle class="cls-17" cx="306.01" cy="375" r="13.48"/><circle class="cls-18" cx="254.76" cy="343.71" r="12.15"/><circle class="cls-19" cx="239.67" cy="313.1" r="12.15"/><circle class="cls-20" cx="222.37" cy="281.59" r="12.15"/><circle class="cls-21" cx="206.84" cy="249.2" r="12.15"/><circle class="cls-22" cx="191.75" cy="212.37" r="12.15"/><circle class="cls-23" cx="271.06" cy="375.99" r="12.15"/><circle class="cls-24" cx="323.98" cy="343.71" r="12.15"/><circle class="cls-25" cx="340.39" cy="312.21" r="12.15"/><circle class="cls-26" cx="355.48" cy="279.82" r="12.15"/><circle class="cls-27" cx="372.78" cy="245.65" r="12.15"/><circle class="cls-28" cx="389.65" cy="212.82" r="12.15"/><circle class="cls-29" cx="223.81" cy="343.71" r="8.49"/><circle class="cls-30" cx="206.28" cy="312.43" r="8.26"/><circle class="cls-31" cx="189.42" cy="277.38" r="8.26"/><circle class="cls-32" cx="175.66" cy="245.88" r="8.26"/><circle class="cls-33" cx="160.13" cy="213.48" r="8.26"/><circle class="cls-10" cx="240.11" cy="373.33" r="8.49"/><circle class="cls-9" cx="257.09" cy="407.94" r="6.49"/><circle class="cls-34" cx="323.31" cy="407.94" r="6.49"/><circle class="cls-35" cx="290.53" cy="407.94" r="7.82"/><circle class="cls-35" cx="290.53" cy="454.84" r="3.81"/><circle class="cls-36" cx="271.9" cy="433.2" r="5.57"/><circle class="cls-37" cx="309.63" cy="433.2" r="5.57"/><circle class="cls-38" cx="207.11" cy="178.98" r="7.82"/><circle class="cls-39" cx="149.42" cy="178.98" r="7.82"/><circle class="cls-40" cx="178.52" cy="178.98" r="7.82"/><circle class="cls-41" cx="135.45" cy="152.13" r="4.73"/><circle class="cls-42" cx="166.4" cy="151.69" r="4.73"/><circle class="cls-43" cx="199.91" cy="152.13" r="4.73"/><circle class="cls-44" cx="231.47" cy="152.13" r="4.73"/><circle class="cls-45" cx="126.19" cy="129.75" r="4.41"/><circle class="cls-46" cx="156.74" cy="130.21" r="4.41"/><circle class="cls-47" cx="190.03" cy="129.75" r="4.41"/><circle class="cls-48" cx="223.51" cy="129.75" r="4.41"/><circle class="cls-49" cx="440.73" cy="151.72" r="4.73"/><circle class="cls-50" cx="409.25" cy="152.91" r="4.73"/><circle class="cls-51" cx="376.98" cy="152.13" r="4.73"/><circle class="cls-52" cx="345.42" cy="152.13" r="4.73"/><circle class="cls-53" cx="449.89" cy="130.19" r="4.41"/><circle class="cls-54" cx="417.87" cy="130.99" r="4.41"/><circle class="cls-55" cx="386.87" cy="129.75" r="4.41"/><circle class="cls-56" cx="353.39" cy="129.75" r="4.41"/><circle class="cls-57" cx="240.83" cy="178.98" r="7.82"/><circle class="cls-58" cx="338.45" cy="178.98" r="7.82"/><circle class="cls-59" cx="370.84" cy="178.98" r="7.82"/><circle class="cls-60" cx="403.68" cy="178.98" r="7.82"/><circle class="cls-61" cx="355.92" cy="343.71" r="7.27"/><circle class="cls-62" cx="371.9" cy="312.65" r="7.27"/><circle class="cls-63" cx="386.98" cy="278.93" r="7.27"/><circle class="cls-64" cx="404.9" cy="244.93" r="7.27"/><circle class="cls-65" cx="421.32" cy="211.65" r="7.27"/><circle class="cls-66" cx="433.07" cy="182.45" r="7.27"/><circle class="cls-67" cx="338.95" cy="375" r="7.6"/></g></svg>